<svg width="112" height="23" viewBox="0 0 112 23" fill="none" xmlns="http://www.w3.org/2000/svg">
<path d="M12.9844 9.26953V16.7578C11.875 17.7734 9.62891 18.2812 6.24609 18.2812C5.58203 18.2812 4.99609 18.2539 4.48828 18.1992C3.98828 18.1445 3.52734 18.0742 3.10547 17.9883C2.69141 17.9023 2.33594 17.7578 2.03906 17.5547C1.74219 17.3438 1.48047 17.1328 1.25391 16.9219C1.02734 16.7109 0.84375 16.4062 0.703125 16.0078C0.5625 15.6016 0.445312 15.2109 0.351562 14.8359C0.265625 14.4609 0.199219 13.957 0.152344 13.3242C0.113281 12.6914 0.0859375 12.0859 0.0703125 11.5078C0.0546875 10.9297 0.046875 10.1875 0.046875 9.28125C0.046875 8.50781 0.0507812 7.84766 0.0585938 7.30078C0.0742188 6.75391 0.101562 6.19531 0.140625 5.625C0.1875 5.05469 0.246094 4.58203 0.316406 4.20703C0.394531 3.82422 0.496094 3.44141 0.621094 3.05859C0.753906 2.66797 0.90625 2.35547 1.07812 2.12109C1.25 1.87891 1.46484 1.64062 1.72266 1.40625C1.98047 1.17188 2.26562 0.992188 2.57812 0.867188C2.89844 0.742188 3.26953 0.628906 3.69141 0.527344C4.11328 0.425781 4.57422 0.359375 5.07422 0.328125C5.57422 0.289062 6.14062 0.269531 6.77344 0.269531C6.8125 0.269531 6.87109 0.269531 6.94922 0.269531C7.49609 0.269531 7.91016 0.273438 8.19141 0.28125C8.47266 0.289062 8.85156 0.320312 9.32812 0.375C9.8125 0.421875 10.1836 0.5 10.4414 0.609375C10.6992 0.710938 10.9961 0.867188 11.332 1.07812C11.668 1.28125 11.918 1.53516 12.082 1.83984C12.2461 2.13672 12.3906 2.51562 12.5156 2.97656C12.6406 3.4375 12.7031 3.96875 12.7031 4.57031C12.7031 4.71094 12.6953 4.90625 12.6797 5.15625L10.582 5.55469L10.4531 3.24609C10.4375 2.74609 10.1523 2.42578 9.59766 2.28516C9.04297 2.13672 7.99219 2.0625 6.44531 2.0625C5.39062 2.0625 4.59375 2.12891 4.05469 2.26172C3.51562 2.38672 3.14062 2.58203 2.92969 2.84766C2.71875 3.11328 2.58984 3.50781 2.54297 4.03125C2.47266 5.63281 2.4375 7.27344 2.4375 8.95312C2.4375 10.6406 2.47266 12.2812 2.54297 13.875C2.58203 14.7188 2.64844 15.2656 2.74219 15.5156C2.89062 15.8984 3.23047 16.1562 3.76172 16.2891C4.26172 16.4141 5.13281 16.4766 6.375 16.4766C9.04688 16.4766 10.5273 16.2969 10.8164 15.9375C10.8086 15.1328 10.8047 13.5 10.8047 11.0391H7.85156L7.65234 9.26953H12.9844ZM18.75 18H16.4414V5.14453H18.75V18ZM18.75 0.175781V2.20312H16.4414V0.175781H18.75ZM27.5508 16.3711L27.5039 18.0117C26.8477 18.1211 26.2539 18.1758 25.7227 18.1758C25.1523 18.1758 24.6797 18.1133 24.3047 17.9883C23.9375 17.8633 23.6602 17.6641 23.4727 17.3906C23.2852 17.1172 23.1562 16.8164 23.0859 16.4883C23.0156 16.1523 22.9805 15.7266 22.9805 15.2109V6.45703H21.2344V5.14453H22.9805V1.48828L25.2773 1.30078V5.14453H27.6445V6.45703H25.2773V14.4258C25.2773 15.2695 25.3164 15.8164 25.3945 16.0664C25.4805 16.3164 25.707 16.4414 26.0742 16.4414C26.4336 16.4414 26.9258 16.418 27.5508 16.3711ZM43.0078 12.9727C43 13.4648 42.9805 13.8984 42.9492 14.2734C42.9258 14.6406 42.8828 14.9883 42.8203 15.3164C42.7578 15.6445 42.6914 15.9219 42.6211 16.1484C42.5508 16.375 42.4375 16.5898 42.2812 16.793C42.1328 16.9883 41.9883 17.1484 41.8477 17.2734C41.707 17.3906 41.5039 17.5 41.2383 17.6016C40.9805 17.6953 40.7305 17.7656 40.4883 17.8125C40.2461 17.8594 39.9219 17.8984 39.5156 17.9297C39.1172 17.9609 38.7305 17.9805 38.3555 17.9883C37.9883 17.9961 37.5234 18 36.9609 18H30.7031V0.539062H37.3359C38.2188 0.539062 38.9492 0.585938 39.5273 0.679688C40.1133 0.765625 40.6289 0.925781 41.0742 1.16016C41.5273 1.39453 41.8555 1.72656 42.0586 2.15625C42.2617 2.58594 42.3672 3.13281 42.375 3.79688L42.3867 5.0625C42.3867 5.59375 42.3672 6.02734 42.3281 6.36328C42.2891 6.69922 42.2188 7.00391 42.1172 7.27734C42.0234 7.55078 41.8789 7.76562 41.6836 7.92188C41.4883 8.07812 41.25 8.21094 40.9688 8.32031C40.6953 8.42188 40.3398 8.51172 39.9023 8.58984C40.4336 8.64453 40.8906 8.76172 41.2734 8.94141C41.6562 9.12109 41.957 9.33594 42.1758 9.58594C42.4023 9.83594 42.5781 10.1523 42.7031 10.5352C42.8281 10.918 42.9102 11.293 42.9492 11.6602C42.9883 12.0273 43.0078 12.4648 43.0078 12.9727ZM40.0664 4.55859C40.0664 4.54297 40.0664 4.51953 40.0664 4.48828C40.0664 4.16016 40.0664 3.92969 40.0664 3.79688C40.0664 3.65625 40.043 3.48828 39.9961 3.29297C39.957 3.08984 39.9141 2.95703 39.8672 2.89453C39.8281 2.83203 39.7305 2.75 39.5742 2.64844C39.4258 2.53906 39.2773 2.47656 39.1289 2.46094C38.9805 2.4375 38.7461 2.41016 38.4258 2.37891C38.1133 2.33984 37.8008 2.32031 37.4883 2.32031C37.1758 2.32031 36.75 2.32031 36.2109 2.32031H33.0586V7.92188H35.4141C36.4375 7.92188 37.2656 7.89453 37.8984 7.83984C38.5312 7.77734 39 7.67578 39.3047 7.53516C39.6172 7.38672 39.8203 7.23047 39.9141 7.06641C40.0156 6.90234 40.0664 6.68359 40.0664 6.41016V4.55859ZM40.6875 12.4102C40.6719 11.4805 40.6367 10.8945 40.582 10.6523C40.4727 10.2227 40.2031 9.92969 39.7734 9.77344C39.2422 9.57031 38.0547 9.46484 36.2109 9.45703C36.0859 9.45703 35.9492 9.45703 35.8008 9.45703H33.0586V16.2305H37.5352C38.4414 16.2305 39.125 16.1562 39.5859 16.0078C40.0469 15.8516 40.3516 15.6211 40.5 15.3164C40.6484 15.0117 40.7188 14.5625 40.7109 13.9688L40.6875 12.4102ZM48.4336 18H46.125V0.585938L48.4336 0.398438V18ZM57.1758 16.5586C58.2852 16.5352 59.0547 16.4531 59.4844 16.3125C59.9219 16.1719 60.1406 15.8945 60.1406 15.4805C60.2266 14.3633 60.2695 13.0703 60.2695 11.6016C60.2695 11.1172 60.25 10.4258 60.2109 9.52734C60.1719 8.62109 60.1523 7.94922 60.1523 7.51172C60.1523 7.37891 60.1289 7.25781 60.082 7.14844C60.043 7.03906 59.9727 6.94922 59.8711 6.87891C59.7773 6.80078 59.6797 6.73438 59.5781 6.67969C59.4844 6.625 59.3477 6.58203 59.168 6.55078C58.9961 6.51953 58.8477 6.49219 58.7227 6.46875C58.6055 6.44531 58.4336 6.42969 58.207 6.42188C57.9883 6.41406 57.8164 6.41016 57.6914 6.41016C57.5742 6.41016 57.3984 6.41016 57.1641 6.41016C56.9297 6.41016 56.75 6.41016 56.625 6.41016C56.5078 6.41016 56.3359 6.41406 56.1094 6.42188C55.8906 6.42969 55.7188 6.44531 55.5938 6.46875C55.4766 6.49219 55.3281 6.51953 55.1484 6.55078C54.9766 6.58203 54.8398 6.625 54.7383 6.67969C54.6445 6.73438 54.5469 6.80078 54.4453 6.87891C54.3516 6.94922 54.2812 7.03906 54.2344 7.14844C54.1953 7.25781 54.1758 7.37891 54.1758 7.51172C54.1758 7.94922 54.1562 8.62109 54.1172 9.52734C54.0781 10.4258 54.0586 11.1172 54.0586 11.6016C54.0586 13.0703 54.1016 14.3633 54.1875 15.4805C54.1875 15.8945 54.4141 16.1797 54.8672 16.3359C55.3281 16.4844 56.0977 16.5586 57.1758 16.5586ZM57.1523 18.1758C56.2852 18.1758 55.5625 18.1406 54.9844 18.0703C54.4062 18 53.9062 17.8477 53.4844 17.6133C53.0703 17.3711 52.7539 17.1172 52.5352 16.8516C52.3164 16.5781 52.1445 16.1523 52.0195 15.5742C51.8945 14.9883 51.8164 14.4102 51.7852 13.8398C51.7617 13.2695 51.75 12.4766 51.75 11.4609C51.75 10.7031 51.7578 10.0703 51.7734 9.5625C51.7969 9.05469 51.8438 8.55859 51.9141 8.07422C51.9844 7.58203 52.0703 7.1875 52.1719 6.89062C52.2812 6.58594 52.4336 6.30078 52.6289 6.03516C52.832 5.76172 53.0586 5.55469 53.3086 5.41406C53.5586 5.27344 53.875 5.15234 54.2578 5.05078C54.6484 4.94141 55.0703 4.87109 55.5234 4.83984C55.9844 4.80078 56.5312 4.78125 57.1641 4.78125C57.7969 4.78125 58.3398 4.80078 58.793 4.83984C59.2539 4.87109 59.6758 4.94141 60.0586 5.05078C60.4492 5.15234 60.7695 5.27344 61.0195 5.41406C61.2695 5.55469 61.4922 5.76172 61.6875 6.03516C61.8906 6.30078 62.043 6.58594 62.1445 6.89062C62.2539 7.1875 62.3438 7.58203 62.4141 8.07422C62.4844 8.55859 62.5273 9.05469 62.543 9.5625C62.5664 10.0703 62.5781 10.7031 62.5781 11.4609C62.5781 12.4766 62.5625 13.2695 62.5312 13.8398C62.5078 14.4102 62.4336 14.9883 62.3086 15.5742C62.1836 16.1523 62.0078 16.5781 61.7812 16.8516C61.5625 17.125 61.2422 17.3789 60.8203 17.6133C60.4062 17.8477 59.9102 18 59.332 18.0703C58.7539 18.1406 58.0273 18.1758 57.1523 18.1758ZM75.9609 5.14453V16.3711C75.9609 17.1445 75.9336 17.7969 75.8789 18.3281C75.832 18.8594 75.7383 19.3555 75.5977 19.8164C75.4648 20.2773 75.2812 20.6445 75.0469 20.918C74.8125 21.1992 74.5 21.4414 74.1094 21.6445C73.7266 21.8477 73.2734 21.9883 72.75 22.0664C72.2266 22.1445 71.5977 22.1836 70.8633 22.1836C69.332 22.1836 68.1133 22.0234 67.207 21.7031L67.3594 20.1094C68.2344 20.3516 69.2734 20.4727 70.4766 20.4727C71.0469 20.4727 71.5273 20.4414 71.918 20.3789C72.3164 20.3164 72.625 20.2383 72.8438 20.1445C73.0703 20.0508 73.2422 19.9141 73.3594 19.7344C73.4844 19.5625 73.5625 19.3906 73.5938 19.2188C73.6328 19.0469 73.6523 18.8281 73.6523 18.5625L73.6406 16.4648C73.4297 17.0117 73.0664 17.4102 72.5508 17.6602C72.0352 17.9102 71.3086 18.0352 70.3711 18.0352C69.6992 18.0352 69.1133 17.9883 68.6133 17.8945C68.1133 17.8008 67.6875 17.6836 67.3359 17.543C66.9844 17.4023 66.6914 17.1836 66.457 16.8867C66.2305 16.582 66.0508 16.2969 65.918 16.0312C65.7852 15.7578 65.6875 15.3711 65.625 14.8711C65.5625 14.3633 65.5234 13.9102 65.5078 13.5117C65.4922 13.1055 65.4844 12.5547 65.4844 11.8594C65.4844 10.9766 65.4922 10.2852 65.5078 9.78516C65.5234 9.28516 65.5586 8.74609 65.6133 8.16797C65.668 7.58203 65.7578 7.14062 65.8828 6.84375C66.0078 6.54688 66.168 6.24609 66.3633 5.94141C66.5664 5.62891 66.8281 5.40625 67.1484 5.27344C67.4688 5.14062 67.8438 5.03125 68.2734 4.94531C68.7109 4.85938 69.2305 4.81641 69.832 4.81641C70.8555 4.81641 71.6758 4.95703 72.293 5.23828C72.9102 5.51172 73.3594 5.95703 73.6406 6.57422L73.8633 5.14453H75.9609ZM73.6523 15.3867V8.23828C73.6523 7.58203 73.4336 7.11328 72.9961 6.83203C72.5664 6.54297 71.793 6.39844 70.6758 6.39844C69.582 6.39844 68.832 6.49609 68.4258 6.69141C67.9883 6.90234 67.7695 7.75781 67.7695 9.25781C67.7695 11.5156 67.8008 13.4844 67.8633 15.1641C67.8867 15.5312 67.9805 15.8008 68.1445 15.9727C68.3164 16.1445 68.6055 16.2656 69.0117 16.3359C69.418 16.3984 70.0547 16.4297 70.9219 16.4297C72.6641 16.4297 73.5742 16.082 73.6523 15.3867ZM89.2734 5.14453V16.3711C89.2734 17.1445 89.2461 17.7969 89.1914 18.3281C89.1445 18.8594 89.0508 19.3555 88.9102 19.8164C88.7773 20.2773 88.5938 20.6445 88.3594 20.918C88.125 21.1992 87.8125 21.4414 87.4219 21.6445C87.0391 21.8477 86.5859 21.9883 86.0625 22.0664C85.5391 22.1445 84.9102 22.1836 84.1758 22.1836C82.6445 22.1836 81.4258 22.0234 80.5195 21.7031L80.6719 20.1094C81.5469 20.3516 82.5859 20.4727 83.7891 20.4727C84.3594 20.4727 84.8398 20.4414 85.2305 20.3789C85.6289 20.3164 85.9375 20.2383 86.1562 20.1445C86.3828 20.0508 86.5547 19.9141 86.6719 19.7344C86.7969 19.5625 86.875 19.3906 86.9062 19.2188C86.9453 19.0469 86.9648 18.8281 86.9648 18.5625L86.9531 16.4648C86.7422 17.0117 86.3789 17.4102 85.8633 17.6602C85.3477 17.9102 84.6211 18.0352 83.6836 18.0352C83.0117 18.0352 82.4258 17.9883 81.9258 17.8945C81.4258 17.8008 81 17.6836 80.6484 17.543C80.2969 17.4023 80.0039 17.1836 79.7695 16.8867C79.543 16.582 79.3633 16.2969 79.2305 16.0312C79.0977 15.7578 79 15.3711 78.9375 14.8711C78.875 14.3633 78.8359 13.9102 78.8203 13.5117C78.8047 13.1055 78.7969 12.5547 78.7969 11.8594C78.7969 10.9766 78.8047 10.2852 78.8203 9.78516C78.8359 9.28516 78.8711 8.74609 78.9258 8.16797C78.9805 7.58203 79.0703 7.14062 79.1953 6.84375C79.3203 6.54688 79.4805 6.24609 79.6758 5.94141C79.8789 5.62891 80.1406 5.40625 80.4609 5.27344C80.7812 5.14062 81.1562 5.03125 81.5859 4.94531C82.0234 4.85938 82.543 4.81641 83.1445 4.81641C84.168 4.81641 84.9883 4.95703 85.6055 5.23828C86.2227 5.51172 86.6719 5.95703 86.9531 6.57422L87.1758 5.14453H89.2734ZM86.9648 15.3867V8.23828C86.9648 7.58203 86.7461 7.11328 86.3086 6.83203C85.8789 6.54297 85.1055 6.39844 83.9883 6.39844C82.8945 6.39844 82.1445 6.49609 81.7383 6.69141C81.3008 6.90234 81.082 7.75781 81.082 9.25781C81.082 11.5156 81.1133 13.4844 81.1758 15.1641C81.1992 15.5312 81.293 15.8008 81.457 15.9727C81.6289 16.1445 81.918 16.2656 82.3242 16.3359C82.7305 16.3984 83.3672 16.4297 84.2344 16.4297C85.9766 16.4297 86.8867 16.082 86.9648 15.3867ZM102.914 11.3906C101.977 11.4844 101.395 11.5391 101.168 11.5547H94.7812C94.7891 12.6875 94.8203 13.9297 94.875 15.2812C94.9141 15.8047 95.1367 16.1523 95.543 16.3242C95.957 16.4883 96.7578 16.5703 97.9453 16.5703C98.3906 16.5703 98.7734 16.5547 99.0938 16.5234C99.4141 16.4844 99.6719 16.4219 99.8672 16.3359C100.07 16.2422 100.227 16.1562 100.336 16.0781C100.453 15.9922 100.539 15.8633 100.594 15.6914C100.648 15.5117 100.684 15.3633 100.699 15.2461C100.715 15.1211 100.73 14.9375 100.746 14.6953C100.762 14.4453 100.781 14.2422 100.805 14.0859L102.598 14.4141C102.582 14.9609 102.543 15.4258 102.48 15.8086C102.418 16.1836 102.312 16.5156 102.164 16.8047C102.016 17.0938 101.84 17.3242 101.637 17.4961C101.434 17.6602 101.16 17.7969 100.816 17.9062C100.473 18.0156 100.094 18.0859 99.6797 18.1172C99.2656 18.1562 98.7539 18.1758 98.1445 18.1758C97.3633 18.1758 96.6836 18.1289 96.1055 18.0352C95.5273 17.9492 95.0312 17.8398 94.6172 17.707C94.2109 17.5742 93.875 17.3594 93.6094 17.0625C93.3438 16.7578 93.1328 16.4688 92.9766 16.1953C92.8281 15.9219 92.7188 15.5195 92.6484 14.9883C92.5781 14.457 92.5312 13.9766 92.5078 13.5469C92.4922 13.1094 92.4844 12.5078 92.4844 11.7422C92.4844 10.6641 92.4961 9.82422 92.5195 9.22266C92.5508 8.62109 92.6289 8.01953 92.7539 7.41797C92.8789 6.80859 93.0469 6.36719 93.2578 6.09375C93.4688 5.82031 93.7812 5.56641 94.1953 5.33203C94.6094 5.09766 95.0977 4.94922 95.6602 4.88672C96.2227 4.81641 96.9375 4.78125 97.8047 4.78125C98.4062 4.78125 98.9258 4.80078 99.3633 4.83984C99.8008 4.87109 100.203 4.94141 100.57 5.05078C100.938 5.16016 101.238 5.28516 101.473 5.42578C101.715 5.56641 101.926 5.77344 102.105 6.04688C102.293 6.32031 102.434 6.60547 102.527 6.90234C102.629 7.19141 102.711 7.57812 102.773 8.0625C102.836 8.54688 102.875 9.03906 102.891 9.53906C102.906 10.0312 102.914 10.6484 102.914 11.3906ZM94.793 10.3242H100.605C100.59 9.32422 100.551 8.41016 100.488 7.58203C100.457 7.10547 100.25 6.78906 99.8672 6.63281C99.4922 6.46875 98.8008 6.38672 97.793 6.38672C96.6758 6.38672 95.9688 6.44922 95.6719 6.57422C95.5391 6.61328 95.4219 6.68359 95.3203 6.78516C95.2266 6.87891 95.1484 7.01562 95.0859 7.19531C95.0234 7.375 94.9727 7.54297 94.9336 7.69922C94.9023 7.85547 94.875 8.07422 94.8516 8.35547C94.8359 8.62891 94.8242 8.84375 94.8164 9C94.8086 9.14844 94.8008 9.37891 94.793 9.69141C94.793 10.0039 94.793 10.2148 94.793 10.3242ZM111.785 4.85156L111.691 6.80859C111.395 6.76953 111.113 6.75 110.848 6.75C110.293 6.75 109.844 6.80469 109.5 6.91406C109.156 7.02344 108.895 7.21094 108.715 7.47656C108.543 7.74219 108.426 8.04688 108.363 8.39062C108.309 8.72656 108.281 9.17969 108.281 9.75C108.281 10.0703 108.293 10.5391 108.316 11.1562C108.348 11.7734 108.363 12.2148 108.363 12.4805V18H106.055V5.14453H108.152L108.387 6.58594C108.629 6.02344 108.996 5.58984 109.488 5.28516C109.98 4.97266 110.57 4.81641 111.258 4.81641C111.43 4.81641 111.605 4.82812 111.785 4.85156Z" fill="#3294F8"/>
</svg>
